<svg enable-background="new 0 0 128 128" viewBox="0 0 128 128" xmlns="http://www.w3.org/2000/svg"><path d="m64 14c27.57 0 50 22.43 50 50s-22.43 50-50 50-50-22.43-50-50 22.43-50 50-50m0-10c-33.14 0-60 26.86-60 60s26.86 60 60 60 60-26.86 60-60-26.86-60-60-60z" fill="#d68b52"/><path d="m64 14.03c27.55 0 49.97 22.41 49.97 49.97s-22.42 49.97-49.97 49.97-49.97-22.42-49.97-49.97 22.42-49.97 49.97-49.97m0-2.97c-29.24 0-52.94 23.7-52.94 52.94s23.7 52.94 52.94 52.94 52.94-23.7 52.94-52.94-23.7-52.94-52.94-52.94z" fill="#784d30"/><path d="m111.18 77.49-37.35-12.14 38.35-12.46c1.58-.51 2.44-2.21 1.93-3.78-.51-1.58-2.21-2.44-3.78-1.93l-38.36 12.47 23.99-33.02c.97-1.34.68-3.22-.66-4.19s-3.22-.68-4.19.66l-23.99 33.02v-41.28c0-1.66-1.34-3-3-3s-3 1.34-3 3v41.28l-24.08-33.14c-.97-1.34-2.85-1.64-4.19-.66-1.34.97-1.64 2.85-.66 4.19l24.08 33.14-38.6-12.54c-1.57-.51-3.27.35-3.78 1.93s.35 3.27 1.93 3.78l38.59 12.54-37.67 12.23c-1.58.51-2.44 2.21-1.93 3.78.41 1.27 1.59 2.07 2.85 2.07.31 0 .62-.05.93-.15l37.67-12.24-22.9 31.52c-.97 1.34-.68 3.22.66 4.19.53.39 1.15.57 1.76.57.93 0 1.84-.43 2.43-1.24l22.9-31.53v38.39c0 1.66 1.34 3 3 3s3-1.34 3-3v-38.4l22.96 31.6c.59.81 1.5 1.24 2.43 1.24.61 0 1.23-.19 1.76-.57 1.34-.97 1.64-2.85.66-4.19l-22.96-31.6 37.35 12.14c.31.1.62.15.93.15 1.26 0 2.44-.81 2.85-2.07.52-1.56-.34-3.25-1.91-3.76zm-47.18-3.81c-4.51 0-8.16-3.66-8.16-8.16 0-4.51 3.66-8.16 8.16-8.16s8.16 3.66 8.16 8.16c0 4.51-3.65 8.16-8.16 8.16z" fill="#a65f3e"/><path d="m64 55.03c-5.79 0-10.48 4.69-10.48 10.48 0 5.8 4.69 10.49 10.48 10.49s10.48-4.69 10.48-10.48-4.69-10.49-10.48-10.49zm0 13.46c-1.64 0-2.97-1.33-2.97-2.97s1.33-2.97 2.97-2.97 2.97 1.33 2.97 2.97-1.33 2.97-2.97 2.97z" fill="#d68b52"/><path d="m64 62.54c1.64 0 2.97 1.33 2.97 2.97s-1.33 2.97-2.97 2.97-2.97-1.33-2.97-2.97 1.33-2.97 2.97-2.97m0-2c-2.74 0-4.97 2.23-4.97 4.97s2.23 4.97 4.97 4.97 4.97-2.23 4.97-4.97-2.23-4.97-4.97-4.97z" fill="#784d30"/></svg>