<svg enable-background="new 0 0 128 128" viewBox="0 0 128 128" xmlns="http://www.w3.org/2000/svg" xmlns:xlink="http://www.w3.org/1999/xlink"><radialGradient id="a" cx="63.6" cy="62.9004" gradientUnits="userSpaceOnUse" r="56.9597"><stop offset=".5" stop-color="#fde030"/><stop offset=".92" stop-color="#f7c02b"/><stop offset="1" stop-color="#f4a223"/></radialGradient><clipPath id="b"><path d="m86 47.7c-9.58.03-17.33 7.82-17.3 17.4s7.82 17.33 17.4 17.3 17.33-7.82 17.3-17.4c-.06-9.57-7.83-17.29-17.4-17.3"/></clipPath><clipPath id="c"><path d="m43 47.7c-9.58.03-17.33 7.82-17.3 17.4s7.82 17.33 17.4 17.3 17.33-7.82 17.3-17.4c-.06-9.57-7.83-17.29-17.4-17.3"/></clipPath><path d="m63.6 118.8c-27.9 0-58-17.5-58-55.9s30.1-55.9 58-55.9c15.5 0 29.8 5.1 40.4 14.4 11.5 10.2 17.6 24.6 17.6 41.5s-6.1 31.2-17.6 41.4c-10.6 9.3-25 14.5-40.4 14.5z" fill="url(#a)"/><path d="m43 47.7c9.58.03 17.33 7.82 17.3 17.4s-7.82 17.33-17.4 17.3-17.33-7.82-17.3-17.4c.06-9.57 7.83-17.29 17.4-17.3" fill="#fff"/><circle cx="42.7" cy="62.8" fill="#422b0d" r="15.4"/><ellipse cx="48.13" cy="68.62" fill="#fff" rx="2.6" ry="2.4" transform="matrix(.7659 -.6429 .6429 .7659 -32.8541 47.0076)"/><ellipse cx="38.69" cy="58.01" fill="#fff" rx="9" ry="7.3" transform="matrix(.8022 -.5971 .5971 .8022 -26.9821 34.5782)"/><path d="m86 47.7c9.58.03 17.33 7.82 17.3 17.4s-7.82 17.33-17.4 17.3-17.33-7.82-17.3-17.4c.06-9.57 7.83-17.29 17.4-17.3" fill="#fff"/><circle cx="85.7" cy="62.8" fill="#422b0d" r="15.4"/><ellipse cx="91.21" cy="68.56" fill="#fff" rx="2.6" ry="2.4" transform="matrix(.7659 -.6429 .6429 .7659 -22.7305 74.6885)"/><ellipse cx="81.7" cy="58.02" fill="#fff" rx="9" ry="7.3" transform="matrix(.8022 -.5971 .5971 .8022 -18.4797 60.2586)"/><g fill="none"><path d="m43 47.7c-9.58.03-17.33 7.82-17.3 17.4s7.82 17.33 17.4 17.3 17.33-7.82 17.3-17.4c-.06-9.57-7.83-17.29-17.4-17.3"/><circle cx="43.3" cy="62.8" r="15.4"/><ellipse cx="37.79" cy="68.56" rx="2.4" ry="2.6" transform="matrix(.6429 -.7659 .7659 .6429 -39.0221 53.4261)"/><ellipse cx="47.29" cy="58.01" rx="7.3" ry="9" transform="matrix(.5971 -.8022 .8022 .5971 -27.4803 61.3103)"/></g><g clip-path="url(#b)"><path d="m102.35 68.47c-2.16-.36-4.35.48-5.71 2.21-.97 1.27-2.49 1.99-4.09 1.95h-.27c-1.1 0-2.19.3-3.13.87-1.48.9-3.35.9-4.83 0-.94-.57-2.03-.87-3.13-.87-.24-.02-.47-.02-.71 0-1.71.25-3.42-.43-4.48-1.79-1.14-1.55-2.95-2.46-4.88-2.45-3.31.08-5.96 2.76-6 6.07.03 3.3 2.7 5.97 6 6 .28 0 .57-.02.85-.06 1.65-.27 3.31.4 4.31 1.74 1.85 2.65 5.46 3.36 8.17 1.61 1.41-.89 3.2-.89 4.61 0 2.63 1.68 6.1 1.07 8-1.4.91-1.25 2.38-1.96 3.93-1.9h.38c3.34-.05 6.01-2.8 5.96-6.14-.04-2.89-2.12-5.34-4.96-5.86z" fill="#29b6f6"/></g><g clip-path="url(#c)"><path d="m59.9 68.47c-2.16-.36-4.35.49-5.7 2.21-.98 1.27-2.5 1.99-4.1 1.95h-.26c-1.1-.01-2.19.29-3.13.87-1.49.9-3.35.9-4.84 0-.94-.58-2.03-.88-3.13-.87-.23-.01-.47-.01-.7 0-1.73.26-3.47-.44-4.53-1.83-1.14-1.55-2.95-2.46-4.87-2.45-3.31.08-5.96 2.76-6 6.07 0 3.31 2.69 6 6 6h.05c.28 0 .56-.02.84-.06 1.65-.27 3.32.4 4.32 1.74 1.82 2.66 5.42 3.4 8.15 1.68 1.4-.89 3.2-.89 4.6 0 2.63 1.68 6.1 1.07 8-1.4.9-1.25 2.38-1.96 3.92-1.9h.39c3.31.28 6.22-2.19 6.5-5.5s-2.19-6.22-5.51-6.51z" fill="#29b6f6"/></g><path d="m27.4 39.8c-2.2.4-2.3 3.6.1 3.7 5.3.07 10.42-1.9 14.3-5.5 1.48-1.28 2.73-2.8 3.7-4.5.58-.83.38-1.97-.45-2.55s-1.97-.38-2.55.45l-.1.1c-3.92 4.38-9.21 7.31-15 8.3z" fill="#422b0d"/><path d="m84.5 31.4c-.58-.83-1.72-1.03-2.55-.45s-1.03 1.72-.45 2.55c.97 1.7 2.22 3.22 3.7 4.5 3.9 3.57 9.01 5.54 14.3 5.5 2.5-.1 2.3-3.3.1-3.7-5.86-.96-11.19-3.93-15.1-8.4z" fill="#422b0d"/><path d="m111.49 29.67c5.33 8.6 8.11 18.84 8.11 30.23 0 16.9-6.1 31.2-17.6 41.4-10.6 9.3-25 14.5-40.4 14.5-18.06 0-37-7.35-48.18-22.94 10.76 17.66 31 25.94 50.18 25.94 15.4 0 29.8-5.2 40.4-14.5 11.5-10.2 17.6-24.5 17.6-41.4 0-12.74-3.47-24.06-10.11-33.23z" fill="#eb8f00"/><path d="m64 103.2c10.8 0 17.8-7.9 19.7-11.6.7-1.4.7-2.6.1-3.1-.64-.4-1.46-.4-2.1 0-.32.13-.62.3-.9.5-4.9 3.52-10.77 5.44-16.8 5.5-6.01-.08-11.87-1.96-16.8-5.4-.28-.2-.58-.37-.9-.5-.64-.4-1.46-.4-2.1 0-.6.6-.6 1.7.1 3.1 1.9 3.6 8.9 11.5 19.7 11.5z" fill="#422b0d"/></svg>