<svg enable-background="new 0 0 128 128" viewBox="0 0 128 128" xmlns="http://www.w3.org/2000/svg" xmlns:xlink="http://www.w3.org/1999/xlink"><linearGradient id="a"><stop offset="0" stop-color="#484d51"/><stop offset=".3552" stop-color="#424548"/><stop offset=".8542" stop-color="#343434"/></linearGradient><linearGradient id="b" gradientUnits="userSpaceOnUse" x1="74.7235" x2="73.4398" xlink:href="#a" y1="227.5767" y2="253.3925"/><linearGradient id="c" gradientUnits="userSpaceOnUse" x1="28.5325" x2="25.1073" xlink:href="#a" y1="195.2456" y2="248.717"/><linearGradient id="d"><stop offset=".1594" stop-color="#a9a9a9"/><stop offset=".2752" stop-color="#929394"/><stop offset=".427" stop-color="#7b7e7f"/><stop offset=".5899" stop-color="#6a6e71"/><stop offset=".7698" stop-color="#606568"/><stop offset="1" stop-color="#5d6265"/></linearGradient><linearGradient id="e" gradientUnits="userSpaceOnUse" x1="70.0063" x2="69.627" xlink:href="#d" y1="143.0817" y2="161.2882"/><linearGradient id="f"><stop offset=".1594" stop-color="#a9a9a9"/><stop offset=".3269" stop-color="#a2a3a3"/><stop offset=".5685" stop-color="#8f9192"/><stop offset=".8537" stop-color="#707476"/><stop offset="1" stop-color="#5d6265"/></linearGradient><linearGradient id="g" gradientUnits="userSpaceOnUse" x1="95.7393" x2="100.1985" xlink:href="#f" y1="195.7241" y2="248.5214"/><radialGradient id="h" cx="56.603" cy="201.5092" gradientTransform="matrix(.9702 -.2421 .5524 2.2138 -109.6361 -230.883)" gradientUnits="userSpaceOnUse" r="29.1567"><stop offset=".2901" stop-color="#959ea1" stop-opacity="0"/><stop offset=".8905" stop-color="#959ea1"/></radialGradient><linearGradient id="i"><stop offset="0" stop-color="#484d51"/><stop offset=".4158" stop-color="#424548"/><stop offset="1" stop-color="#343434"/></linearGradient><linearGradient id="j" gradientUnits="userSpaceOnUse" x1="41.3361" x2="47.2951" xlink:href="#i" y1="212.3326" y2="197.9824"/><linearGradient id="k" gradientUnits="userSpaceOnUse" x1="56.5938" x2="51.6658" xlink:href="#i" y1="164.6634" y2="176.3782"/><linearGradient id="l" gradientUnits="userSpaceOnUse" x1="74.7235" x2="73.4398" xlink:href="#a" y1="388.0138" y2="413.8296"/><linearGradient id="m" gradientUnits="userSpaceOnUse" x1="28.5325" x2="25.1073" xlink:href="#a" y1="355.6827" y2="409.1541"/><linearGradient id="n" gradientUnits="userSpaceOnUse" x1="70.0063" x2="69.627" xlink:href="#d" y1="303.5188" y2="321.7253"/><linearGradient id="o" gradientUnits="userSpaceOnUse" x1="95.7393" x2="100.1985" xlink:href="#f" y1="356.1612" y2="408.9585"/><linearGradient id="p" gradientUnits="userSpaceOnUse" x1="41.3361" x2="47.2951" xlink:href="#i" y1="372.7697" y2="358.4195"/><linearGradient id="q" gradientUnits="userSpaceOnUse" x1="56.5938" x2="51.6658" xlink:href="#i" y1="325.1005" y2="336.8152"/><linearGradient id="r" gradientUnits="userSpaceOnUse" x1="75.7235" x2="74.4398" xlink:href="#a" y1="-278.0974" y2="-252.2816"/><linearGradient id="s" gradientUnits="userSpaceOnUse" x1="29.5325" x2="26.1073" xlink:href="#a" y1="-310.4285" y2="-256.9571"/><linearGradient id="t" gradientUnits="userSpaceOnUse" x1="71.0063" x2="70.627" xlink:href="#d" y1="-362.5924" y2="-344.3859"/><linearGradient id="u" gradientUnits="userSpaceOnUse" x1="96.7393" x2="101.1985" xlink:href="#f" y1="-309.95" y2="-257.1527"/><linearGradient id="v" gradientUnits="userSpaceOnUse" x1="42.429" x2="49.0256" xlink:href="#i" y1="-293.4871" y2="-309.3727"/><linearGradient id="w" gradientUnits="userSpaceOnUse" x1="57.4613" x2="51.9307" xlink:href="#i" y1="-340.4755" y2="-327.3282"/><linearGradient id="x" gradientUnits="userSpaceOnUse" x1="74.7235" x2="73.4398" xlink:href="#a" y1="-117.5497" y2="-91.7339"/><linearGradient id="y" gradientUnits="userSpaceOnUse" x1="28.5325" x2="25.1073" xlink:href="#a" y1="-149.8808" y2="-96.4094"/><linearGradient id="z" gradientUnits="userSpaceOnUse" x1="70.0063" x2="69.627" xlink:href="#d" y1="-202.0447" y2="-183.8383"/><linearGradient id="A" gradientUnits="userSpaceOnUse" x1="95.7393" x2="100.1985" xlink:href="#f" y1="-149.4023" y2="-96.6051"/><linearGradient id="B" gradientUnits="userSpaceOnUse" x1="41.3361" x2="47.2951" xlink:href="#i" y1="-132.7938" y2="-147.144"/><linearGradient id="C" gradientUnits="userSpaceOnUse" x1="56.5938" x2="51.6658" xlink:href="#i" y1="-180.463" y2="-168.7483"/><linearGradient id="D" gradientUnits="userSpaceOnUse" x1="75.295" x2="75.295" xlink:href="#a" y1="116.2814" y2="89.4236"/><linearGradient id="E" gradientUnits="userSpaceOnUse" x1="27.4961" x2="27.4961" xlink:href="#a" y1="118.1927" y2="54.9534"/><linearGradient id="F" gradientUnits="userSpaceOnUse" x1="71.0063" x2="70.627" xlink:href="#d" y1="-1.4761" y2="16.7303"/><linearGradient id="G" gradientUnits="userSpaceOnUse" x1="96.7393" x2="101.1985" xlink:href="#f" y1="51.1663" y2="103.9635"/><linearGradient id="H" gradientUnits="userSpaceOnUse" x1="42.429" x2="49.0256" xlink:href="#i" y1="67.6292" y2="51.7435"/><linearGradient id="I" gradientUnits="userSpaceOnUse" x1="57.4613" x2="51.9307" xlink:href="#i" y1="20.6407" y2="33.788"/><path d="m84.15 227.38-20.16 5.9s2 11.13 2.76 15.12 1.14 7.51.76 8.75-3.99 3.71-3.33 6.09c.67 2.38 6.28 2.95 12.17 2.19 5.9-.76 6.94-2.85 7.04-5.99s-2.09-8.84-1.81-10.36c.29-1.52 2.66-4.94 2.95-8.65s-.38-13.05-.38-13.05z" fill="url(#b)"/><path d="m40.31 205.94-18.68-24.82s-7.56 3-7.99 13.83 2.42 16.97 2.14 21.39c-.29 4.42-4.14 8.7-3.85 15.69s4.14 17.26 4.14 18.97-.57 11.32 1.64 13.36c2.01 1.86 6.63 2.33 10.63 2.04s8.42-1.14 8.42-4.28-5.27-2.74-5.71-4.42c-.21-.83.61-1.22 1.09-3.19.28-1.11-.05-2.76-.05-2.76s7.16-9.89 8.65-16.81-2.5-13.62-2.78-15.83c-.28-2.19 2.35-13.17 2.35-13.17z" fill="url(#c)"/><path d="m28.62 198.26c-1.01-1.59-4.99-1.43-7.84-5.92s-2.42-9.34-.93-12.05c1.24-2.23 2.78-3 2.78-3l.07-2.14s-2.35-1.43-2.57-4.64c-.21-3.21.86-4.71 3.85-7.13 3-2.42 5.71-4.14 5.71-4.14s-.29-2.92.5-4.78c.78-1.85 4.35-5.92 10.63-5.92s11.16 3.85 14.94 7.84 4.14 7.56 4.06 8.49c-.07.93-3.17 5.56-3.17 5.56l7.35 9.35 16.3 9.44 12.23 16.08 14.83 12.34 4.17 19.25s4.24 4.49 5.6 10.7 1.43 15.26-.71 16.76-6.85 4.21-15.4 3.85c-6.72-.28-6.56-1.78-6.42-3 .18-1.5 4.49-5.63 4.99-6.28.5-.64.36-7.27-1.21-8.2s-4.49-1.35-8.06-5.71c-3.57-4.35-4.49-10.48-4.49-10.48s-3.49 1.27-7.7 1.35c-5.85.12-14.12-2.64-14.12-2.64s-17.4-7.61-21.47-12.91c-2.95-3.84-4.28-6.13-4.28-6.13s-3.85-1.78-6.63-7.35c-2.8-5.52-2.01-7.02-3.01-8.59z" fill="url(#e)"/><path d="m43.24 171.38c.21-1.57 1-2.71-.93-3.85s-8.91-.78-11.84-.64c-2.92.14-8.49 0-7.99 2.35.12.59.23 1.68 1.07 2.46 2.52 2.34 7.42 2.67 7.42 2.67z" fill="#44494e"/><path d="m30.54 172.31c.93.18 1.93-4.28 7.99-4.06s7.38 3.85 7.38 3.85-4.89 6.99-6.81 11.55c-1.93 4.56-3.78 10.27-4.85 10.63s-6.61-.12-10.2-3c-2.89-2.32-3.99-5.24-3.42-8.63.29-1.74 1.32-2.89 1.75-3.35.34-.37 2.14 1.93 3.21 1.5s.93-1.11.53-1.57c-.39-.46-2.21-1.68-2.21-1.68s.86-1.32 2.1-.75c1.06.48 2.14 2.1 2.14 2.1s1.96-2.06 2.82-2.21c1.39-.25 2.35 1.11 2.35 1.11s-2.96.96-3.32 1.82.29 1.96 2.35 1.21c2.07-.75 2.96-1.18 2.96-1.18s.11-3.24-3.03-4.1c-2.21-.61-4.06 1.6-4.06 1.6s-1.35-1.35-2.1-1.57c-.75-.21-1.39-.07-1.39-.07s-1.03-2.18-1.39-3.21-.78-2.57-.78-2.57 2.21-.89 4.28-.07 2.78 2.47 3.7 2.65z" fill="#aeaeaf"/><path d="m35.71 172.13c-.91.88-1.11 2.46-.18 3.17s2.28.43 3.14-.53 1-2.46.25-3.03c-.75-.58-2.1-.68-3.21.39z"/><path d="m28.01 174.77c-.89.8-2.1.04-2.53-.53-.62-.83-.82-2.1-.46-2.6s1.64-.71 2.53.11c.89.81 1.21 2.34.46 3.02z"/><path d="m27.55 185.64c3.46.11 4.81-.04 5.74-.11.41-.03 1.28-.57 2.32.04 1.03.61.79 2.21-.61 2.25-1.39.04-1.68-.21-1.68-.21s-2.08.45-5.81.14c-3.46-.29-4.71-1.07-4.71-1.07s-1.6.66-1.93-.53c-.31-1.17.74-1.94 1.68-1.53.92.38 1.96.93 5 1.02z"/><path d="m84.39 214.81c1.27 2.62 4.42 5.56 6.63 4.99s2.57-1.57 4.28-2.42c1.71-.86 3.28-.71 3.28-.71s-2.71 3.28-3.35 6.63-2.07 12.48 4.14 16.54c6.2 4.06 12.19-2.85 12.19-2.85s1.71-11.13.5-18.83-5.28-14.77-8.91-16.9c-2.42-1.43-3.71-1-6.92-2.07-2.65-.88-6.7-2.78-9.56-4.85-2.85-2.07-5.92-4.42-5.92-4.42.11-.58 2.99 7.8 2.85 13.05-.09 3.43-.43 9.34.79 11.84z" fill="url(#g)"/><path d="m81.28 190.44s1.42 9.03.9 15.38c-.54 6.69-4.7 10.85-4.88 12.48-.3 2.7-1.81 16.64-4.7 17.37-4.01 1-12.3-24.24-12.3-24.24z" fill="#44494e"/><path d="m54.77 173.47s1.32-.5 2.73-1.2c1.14-.57 2-1.75 2-1.75s6.39-1.14 12.77 4.66c6.37 5.8 10.17 12.93 8.65 24.15s-6.18 17.88-6.18 17.88.57 9.32-1.33 15.78c-1.9 6.47-9.7 19.87-9.98 23.39-.29 3.52 4.02 4.24 5.21 7.24 1.05 2.65-.86 4.79-7.13 4.89s-12.84.33-13.12-2.5c-.48-4.78 2.97-5.63 2.78-11.43s-4.28-11.89-4.85-21.01c-.57-9.13 1.24-11.89 1.24-11.89s-.57-12.84 1.14-21.39c1.71-8.56 7.89-15.31 7.61-19.59-.31-4.28-1.54-7.23-1.54-7.23z" fill="#5d6265"/><path d="m56.38 175.11c.94-2.4 1.64-2.99 3.94-3.17 4.75-.37 10.14 4.31 12.33 8.1-1.55-.28-3.12-.43-4.69-.46 5.47 3.2 8.35 6.19 9.6 15.55-1.15-1.19-3.81-2.7-5.25-3.52 0 0 5.25 9.9 1.73 18-.73-1.6-3.07-8.3-3.8-9.9 1.79 14.7-2.83 18.47-7.26 23.09-.32.33-17.73-19.13-6.6-47.69z" fill="url(#h)"/><path d="m52.68 190.95c.05-.27-.29-.41-.46-.2-3.43 4.31-9.64 6.62-15.04 7.45-.29.04-.61.1-.79.33-1.07 1.3 5.11 2.5 10.39 1.56-.92 2.82 1.1 6.52 2.07 9.31 1.42 4.07-1.2 9.45.34 8.64 1.54-.8 1.69-4.27 2.18-6.53.53-2.45-.02-6.56-.07-9.07-.1-4.5.57-6.99 1.38-11.49z" fill="url(#j)"/><path d="m56.38 175.11c.36-.93.69-1.58 1.09-2.05.78-1.32 3.05-2.41 3.05-6 0-2.97-1.74-6.31-1.74-6.31s-.78 5.72-2.35 7.06c-1.59 1.35-3.47 1.81-5.51 1.88-.47.02-1.45-.16-1.86.11-.82.54-.3 1.94.17 2.61.52.74 1.27 1.28 1.94 1.89 2.04 1.86 3.07 3.97 3.61 5.5.46-1.53.98-3.09 1.6-4.69z" fill="url(#k)"/><path d="m84.15 387.82-20.16 5.9s2 11.13 2.76 15.12 1.14 7.51.76 8.75-3.99 3.71-3.33 6.09c.67 2.38 6.28 2.95 12.17 2.19s6.94-2.85 7.04-5.99-2.09-8.84-1.81-10.36c.29-1.52 2.66-4.94 2.95-8.65s-.38-13.05-.38-13.05z" fill="url(#l)"/><path d="m40.31 366.38-18.68-24.82s-7.56 3-7.99 13.83 2.42 16.97 2.14 21.39c-.29 4.42-4.14 8.7-3.85 15.69s4.14 17.26 4.14 18.97-.57 11.32 1.64 13.36c2.01 1.86 6.63 2.33 10.63 2.04 3.99-.29 8.42-1.14 8.42-4.28s-5.27-2.74-5.71-4.42c-.21-.83.61-1.22 1.09-3.19.28-1.11-.05-2.76-.05-2.76s7.16-9.89 8.65-16.81c1.5-6.92-2.5-13.62-2.78-15.83-.28-2.19 2.35-13.17 2.35-13.17z" fill="url(#m)"/><path d="m28.62 358.7c-1.01-1.59-4.99-1.43-7.84-5.92s-2.42-9.34-.93-12.05c1.24-2.23 2.78-3 2.78-3l.07-2.14s-2.35-1.43-2.57-4.64.86-4.71 3.85-7.13 5.71-4.14 5.71-4.14-.29-2.92.5-4.78c.78-1.85 4.35-5.92 10.63-5.92s11.16 3.85 14.94 7.84 4.14 7.56 4.06 8.49c-.07.93-3.17 5.56-3.17 5.56l7.35 9.35 16.3 9.44 12.23 16.08 14.83 12.34 4.17 19.25s4.24 4.49 5.6 10.7 1.43 15.26-.71 16.76-6.85 4.21-15.4 3.85c-6.72-.28-6.56-1.78-6.42-3 .18-1.5 4.49-5.63 4.99-6.28.5-.64.36-7.27-1.21-8.2s-4.49-1.35-8.06-5.71c-3.57-4.35-4.49-10.48-4.49-10.48s-3.49 1.27-7.7 1.35c-5.85.12-14.12-2.64-14.12-2.64s-17.4-7.61-21.47-12.91c-2.95-3.84-4.28-6.13-4.28-6.13s-3.85-1.78-6.63-7.35c-2.8-5.52-2.01-7.02-3.01-8.59z" fill="url(#n)"/><path d="m43.24 331.82c.21-1.57 1-2.71-.93-3.85s-8.91-.78-11.84-.64c-2.92.14-8.49 0-7.99 2.35.12.59.23 1.68 1.07 2.46 2.52 2.34 7.42 2.67 7.42 2.67z" fill="#44494e"/><path d="m30.54 332.74c.93.18 1.93-4.28 7.99-4.06 6.06.21 7.38 3.85 7.38 3.85s-4.89 6.99-6.81 11.55c-1.93 4.56-3.78 10.27-4.85 10.63s-6.61-.12-10.2-3c-2.89-2.32-3.99-5.24-3.42-8.63.29-1.74 1.32-2.89 1.75-3.35.34-.37 2.14 1.93 3.21 1.5s.93-1.11.53-1.57c-.39-.46-2.21-1.68-2.21-1.68s.86-1.32 2.1-.75c1.06.48 2.14 2.1 2.14 2.1s1.96-2.06 2.82-2.21c1.39-.25 2.35 1.11 2.35 1.11s-2.96.96-3.32 1.82.29 1.96 2.35 1.21c2.07-.75 2.96-1.18 2.96-1.18s.11-3.24-3.03-4.1c-2.21-.61-4.06 1.6-4.06 1.6s-1.35-1.35-2.1-1.57c-.75-.21-1.39-.07-1.39-.07s-1.03-2.18-1.39-3.21-.78-2.57-.78-2.57 2.21-.89 4.28-.07c2.06.83 2.78 2.47 3.7 2.65z" fill="#aeaeaf"/><path d="m35.71 332.56c-.91.88-1.11 2.46-.18 3.17s2.28.43 3.14-.53 1-2.46.25-3.03-2.1-.68-3.21.39z"/><path d="m28.01 335.2c-.89.8-2.1.04-2.53-.53-.62-.83-.82-2.1-.46-2.6s1.64-.71 2.53.11c.89.81 1.21 2.35.46 3.02z"/><path d="m27.55 346.08c3.46.11 4.81-.04 5.74-.11.41-.03 1.28-.57 2.32.04s.79 2.21-.61 2.25c-1.39.04-1.68-.21-1.68-.21s-2.08.45-5.81.14c-3.46-.29-4.71-1.07-4.71-1.07s-1.6.66-1.93-.53c-.31-1.17.74-1.94 1.68-1.53.92.38 1.96.92 5 1.02z"/><path d="m84.39 375.25c1.27 2.62 4.42 5.56 6.63 4.99s2.57-1.57 4.28-2.42c1.71-.86 3.28-.71 3.28-.71s-2.71 3.28-3.35 6.63-2.07 12.48 4.14 16.54c6.2 4.06 12.19-2.85 12.19-2.85s1.71-11.13.5-18.83-5.28-14.77-8.91-16.9c-2.42-1.43-3.71-1-6.92-2.07-2.65-.88-6.7-2.78-9.56-4.85-2.85-2.07-5.92-4.42-5.92-4.42.11-.58 2.99 7.8 2.85 13.05-.09 3.43-.43 9.34.79 11.84z" fill="url(#o)"/><path d="m81.28 350.88s1.42 9.03.9 15.38c-.54 6.69-4.7 10.85-4.88 12.48-.3 2.7-1.81 16.64-4.7 17.37-4.01 1-12.3-24.24-12.3-24.24z" fill="#44494e"/><path d="m54.77 333.91s1.32-.5 2.73-1.2c1.14-.57 2-1.75 2-1.75s6.39-1.14 12.77 4.66c6.37 5.8 10.17 12.93 8.65 24.15s-6.18 17.88-6.18 17.88.57 9.32-1.33 15.78c-1.9 6.47-9.7 19.87-9.98 23.39-.29 3.52 4.02 4.24 5.21 7.24 1.05 2.65-.86 4.79-7.13 4.89-6.28.1-12.84.33-13.12-2.5-.48-4.78 2.97-5.63 2.78-11.43s-4.3-11.89-4.87-21.02 1.24-11.89 1.24-11.89-.57-12.84 1.14-21.39 7.89-15.31 7.61-19.59c-.29-4.27-1.52-7.22-1.52-7.22z" fill="#5d6265"/><path d="m52.68 351.39c.05-.27-.29-.41-.46-.2-3.43 4.31-9.64 6.62-15.04 7.45-.29.04-.61.1-.79.33-1.07 1.3 5.11 2.5 10.39 1.56-.92 2.82 1.1 6.52 2.07 9.31 1.42 4.07-1.2 9.45.34 8.64 1.54-.8 1.69-4.27 2.18-6.53.53-2.45-.02-6.56-.07-9.07-.1-4.51.57-6.99 1.38-11.49z" fill="url(#p)"/><path d="m56.38 335.55c.36-.93.69-1.58 1.09-2.05.78-1.32 3.05-2.41 3.05-6 0-2.97-1.74-6.31-1.74-6.31s-.78 5.72-2.35 7.06c-1.59 1.35-3.47 1.81-5.51 1.88-.47.02-1.45-.16-1.86.11-.82.54-.3 1.94.17 2.61.52.74 1.27 1.28 1.94 1.89 2.04 1.86 3.07 3.97 3.61 5.5.46-1.53.98-3.1 1.6-4.69z" fill="url(#q)"/><path d="m85.15-278.29-20.16 5.9s2 11.13 2.76 15.12 1.14 7.51.76 8.75-3.99 3.71-3.33 6.09c.67 2.38 6.28 2.95 12.17 2.19s6.94-2.85 7.04-5.99-2.09-8.84-1.81-10.36c.29-1.52 2.66-4.94 2.95-8.65s-.38-13.05-.38-13.05z" fill="url(#r)"/><path d="m41.31-299.73-18.68-24.82s-7.56 3-7.99 13.83 2.42 16.97 2.14 21.39c-.29 4.42-4.14 8.7-3.85 15.69s4.14 17.26 4.14 18.97-.57 11.32 1.64 13.36c2.01 1.86 6.63 2.33 10.63 2.04s8.42-1.14 8.42-4.28-5.27-2.74-5.71-4.42c-.21-.83.61-1.22 1.09-3.19.28-1.11-.05-2.76-.05-2.76s7.16-9.89 8.65-16.81c1.5-6.92-2.5-13.62-2.78-15.83-.28-2.19 2.35-13.17 2.35-13.17z" fill="url(#s)"/><path d="m29.62-307.41c-1.01-1.59-4.99-1.43-7.84-5.92s-2.42-9.34-.93-12.05c1.24-2.23 2.78-3 2.78-3l.07-2.14s-2.35-1.43-2.57-4.64.86-4.71 3.85-7.13 5.71-4.14 5.71-4.14-.29-2.92.5-4.78c.78-1.85 4.35-5.92 10.63-5.92s11.16 3.85 14.94 7.84 4.14 7.56 4.06 8.49c-.07.93-3.17 5.56-3.17 5.56l7.35 9.35 16.3 9.44 12.23 16.08 14.83 12.34 4.17 19.25s4.24 4.49 5.6 10.7 1.43 15.26-.71 16.76-6.85 4.21-15.4 3.85c-6.72-.28-6.56-1.78-6.42-3 .18-1.5 4.49-5.63 4.99-6.28s.36-7.27-1.21-8.2-4.49-1.35-8.06-5.71c-3.57-4.35-4.49-10.48-4.49-10.48s-3.49 1.27-7.7 1.35c-5.85.12-14.12-2.64-14.12-2.64s-17.42-7.57-21.49-12.87c-2.95-3.84-4.28-6.13-4.28-6.13s-3.85-1.78-6.63-7.35c-2.78-5.56-1.99-7.06-2.99-8.63z" fill="url(#t)"/><path d="m44.24-334.3c.21-1.57 1-2.71-.93-3.85s-8.91-.78-11.84-.64c-2.92.14-8.49 0-7.99 2.35.12.59.23 1.68 1.07 2.46 2.52 2.34 7.42 2.67 7.42 2.67z" fill="#44494e"/><path d="m31.54-333.37c.93.18 1.93-4.28 7.99-4.06 6.06.21 7.38 3.85 7.38 3.85s-4.89 6.99-6.81 11.55c-1.93 4.56-3.78 10.27-4.85 10.63s-6.61-.12-10.2-3c-2.89-2.32-3.99-5.24-3.42-8.63.29-1.74 1.32-2.89 1.75-3.35.34-.37 2.14 1.93 3.21 1.5s.93-1.11.53-1.57c-.39-.46-2.21-1.68-2.21-1.68s.86-1.32 2.1-.75c1.06.48 2.14 2.1 2.14 2.1s1.96-2.06 2.82-2.21c1.39-.25 2.35 1.11 2.35 1.11s-2.96.96-3.32 1.82.29 1.96 2.35 1.21c2.07-.75 2.96-1.18 2.96-1.18s.11-3.24-3.03-4.1c-2.21-.61-4.06 1.6-4.06 1.6s-1.35-1.35-2.1-1.57c-.75-.21-1.39-.07-1.39-.07s-1.03-2.18-1.39-3.21-.78-2.57-.78-2.57 2.21-.89 4.28-.07c2.06.83 2.78 2.47 3.7 2.65z" fill="#aeaeaf"/><path d="m36.71-333.55c-.91.88-1.11 2.46-.18 3.17s2.28.43 3.14-.53 1-2.46.25-3.03-2.1-.68-3.21.39z"/><path d="m29.01-330.91c-.89.8-2.1.04-2.53-.53-.62-.83-.82-2.1-.46-2.6s1.64-.71 2.53.11c.89.81 1.21 2.34.46 3.02z"/><path d="m28.55-320.03c3.46.11 4.81-.04 5.74-.11.41-.03 1.28-.57 2.32.04s.79 2.21-.61 2.25c-1.39.04-1.68-.21-1.68-.21s-2.08.45-5.81.14c-3.46-.29-4.71-1.07-4.71-1.07s-1.6.66-1.93-.53c-.31-1.17.74-1.94 1.68-1.53.92.38 1.96.92 5 1.02z"/><path d="m85.39-290.87c1.27 2.62 4.42 5.56 6.63 4.99s2.57-1.57 4.28-2.42c1.71-.86 3.28-.71 3.28-.71s-2.71 3.28-3.35 6.63-2.07 12.48 4.14 16.54 12.19-2.85 12.19-2.85 1.71-11.13.5-18.83-5.28-14.77-8.91-16.9c-2.42-1.43-3.71-1-6.92-2.07-2.65-.88-6.7-2.78-9.56-4.85-2.85-2.07-5.92-4.42-5.92-4.42.11-.58 2.99 7.8 2.85 13.05-.09 3.44-.43 9.35.79 11.84z" fill="url(#u)"/><path d="m82.28-315.23s1.42 9.03.9 15.38c-.54 6.69-4.7 10.85-4.88 12.48-.3 2.7-1.81 16.64-4.7 17.37-4.01 1-12.3-24.24-12.3-24.24z" fill="#44494e"/><path d="m55.77-332.2s1.32-.5 2.73-1.2c1.14-.57 2-1.75 2-1.75s6.39-1.14 12.77 4.66c6.37 5.8 10.17 12.93 8.65 24.15s-6.18 17.88-6.18 17.88.57 9.32-1.33 15.78c-1.9 6.47-9.7 19.87-9.98 23.39-.29 3.52 4.02 4.24 5.21 7.24 1.05 2.65-.86 4.79-7.13 4.89s-12.84.33-13.12-2.5c-.48-4.78 2.97-5.63 2.78-11.43s-4.28-11.89-4.85-21.01c-.57-9.13 1.24-11.89 1.24-11.89s-.57-12.84 1.14-21.39c1.71-8.56 7.89-15.31 7.61-19.59-.31-4.29-1.54-7.23-1.54-7.23z" fill="#5d6265"/><path d="m54.11-314.62c.02-.06.04-.12.06-.17.27-.77.56-1.58.42-2.38-.03-.2-.11-.41-.29-.51-.19-.1-.43-.02-.62.09-1.17.68-1.54 2.23-2.3 3.27-1.09 1.48-2.33 2.94-3.91 3.91-2.68 1.66-6.22 2.46-9.3 2.93-.29.04-.61.1-.79.33-1.07 1.3 5.11 2.5 10.39 1.56-.92 2.82 1.1 6.52 2.07 9.31.65 1.86.47 3.89.18 5.8-.06.4-.81 3.11.09 3.08.35-.01.81-1.52.96-1.79.54-.98 1.14-1.87 1.54-2.92.76-1.97 1.09-4.11.91-6.22s-.84-4.15-1.05-6.26c-.34-3.39.52-6.79 1.64-10.03z" fill="url(#v)"/><path d="m57.38-330.56c.36-.93.69-1.58 1.09-2.05.78-1.32 3.05-2.41 3.05-6 0-2.97-1.74-6.31-1.74-6.31s-.78 5.72-2.35 7.06c-1.59 1.35-3.47 1.81-5.51 1.88-4.13.13-1.57 3.05.1 5.08 1.81 2.19 2.89 4.74 3.56 7.48 1.07-2.14.83-4.88 1.8-7.14z" fill="url(#w)"/><path d="m84.15-117.74-20.16 5.9s2 11.13 2.76 15.12 1.14 7.51.76 8.75-3.99 3.71-3.33 6.09c.67 2.38 6.28 2.95 12.17 2.19s6.94-2.85 7.04-5.99-2.09-8.84-1.81-10.36c.29-1.52 2.66-4.94 2.95-8.65.28-3.73-.38-13.05-.38-13.05z" fill="url(#x)"/><path d="m40.31-139.18-18.68-24.82s-7.56 3-7.99 13.83c-.43 10.84 2.42 16.97 2.14 21.39-.29 4.42-4.14 8.7-3.85 15.69s4.14 17.26 4.14 18.97-.57 11.32 1.64 13.36c2.01 1.86 6.63 2.33 10.63 2.04 3.99-.29 8.42-1.14 8.42-4.28s-5.27-2.74-5.71-4.42c-.21-.83.61-1.22 1.09-3.19.28-1.11-.05-2.76-.05-2.76s7.16-9.89 8.65-16.81-2.5-13.62-2.78-15.83c-.28-2.19 2.35-13.17 2.35-13.17z" fill="url(#y)"/><path d="m28.62-146.86c-1.01-1.59-4.99-1.43-7.84-5.92s-2.42-9.34-.93-12.05c1.24-2.23 2.78-3 2.78-3l.07-2.14s-2.35-1.43-2.57-4.64c-.21-3.21.86-4.71 3.85-7.13s5.71-4.14 5.71-4.14-.29-2.92.5-4.78c.78-1.85 4.35-5.92 10.63-5.92s11.16 3.85 14.94 7.84 4.14 7.56 4.06 8.49c-.07.93-3.17 5.56-3.17 5.56l7.35 9.35 16.3 9.44 12.23 16.08 14.83 12.34 4.17 19.25s4.24 4.49 5.6 10.7 1.43 15.26-.71 16.76-6.85 4.21-15.4 3.85c-6.72-.28-6.56-1.78-6.42-3 .18-1.5 4.49-5.63 4.99-6.28.5-.64.36-7.27-1.21-8.2s-4.49-1.35-8.06-5.71c-3.57-4.35-4.49-10.48-4.49-10.48s-3.49 1.27-7.7 1.35c-5.85.12-14.12-2.64-14.12-2.64s-17.4-7.61-21.47-12.91c-2.95-3.84-4.28-6.13-4.28-6.13s-3.85-1.78-6.63-7.35c-2.8-5.53-2.01-7.02-3.01-8.59z" fill="url(#z)"/><path d="m43.24-173.75c.21-1.57 1-2.71-.93-3.85s-8.91-.78-11.84-.64c-2.92.14-8.49 0-7.99 2.35.12.59.23 1.68 1.07 2.46 2.52 2.34 7.42 2.67 7.42 2.67z" fill="#44494e"/><path d="m30.54-172.82c.93.18 1.93-4.28 7.99-4.06s7.38 3.85 7.38 3.85-4.89 6.99-6.81 11.55c-1.93 4.56-3.78 10.27-4.85 10.63s-6.61-.12-10.2-3c-2.89-2.32-3.99-5.24-3.42-8.63.29-1.74 1.32-2.89 1.75-3.35.34-.37 2.14 1.93 3.21 1.5s.93-1.11.53-1.57c-.39-.46-2.21-1.68-2.21-1.68s.86-1.32 2.1-.75c1.06.48 2.14 2.1 2.14 2.1s1.96-2.06 2.82-2.21c1.39-.25 2.35 1.11 2.35 1.11s-2.96.96-3.32 1.82.29 1.96 2.35 1.21 2.96-1.18 2.96-1.18.11-3.24-3.03-4.1c-2.21-.61-4.06 1.6-4.06 1.6s-1.35-1.35-2.1-1.57c-.75-.21-1.39-.07-1.39-.07s-1.03-2.18-1.39-3.21-.78-2.57-.78-2.57 2.21-.89 4.28-.07 2.78 2.47 3.7 2.65z" fill="#aeaeaf"/><path d="m35.71-173c-.91.88-1.11 2.46-.18 3.17s2.28.43 3.14-.53 1-2.46.25-3.03-2.1-.68-3.21.39z"/><path d="m28.01-170.36c-.89.8-2.1.04-2.53-.53-.62-.83-.82-2.1-.46-2.6s1.64-.71 2.53.11c.89.81 1.21 2.34.46 3.02z"/><path d="m27.55-159.49c3.46.11 4.81-.04 5.74-.11.41-.03 1.28-.57 2.32.04s.79 2.21-.61 2.25c-1.39.04-1.68-.21-1.68-.21s-2.08.45-5.81.14c-3.46-.29-4.71-1.07-4.71-1.07s-1.6.66-1.93-.53c-.31-1.17.74-1.94 1.68-1.53.92.38 1.96.93 5 1.02z"/><path d="m84.39-130.32c1.27 2.62 4.42 5.56 6.63 4.99s2.57-1.57 4.28-2.42c1.71-.86 3.28-.71 3.28-.71s-2.71 3.28-3.35 6.63-2.07 12.48 4.14 16.54 12.19-2.85 12.19-2.85 1.71-11.13.5-18.83-5.28-14.77-8.91-16.9c-2.42-1.43-3.71-1-6.92-2.07-2.65-.88-6.7-2.78-9.56-4.85-2.85-2.07-5.92-4.42-5.92-4.42.11-.58 2.99 7.8 2.85 13.05-.09 3.43-.43 9.35.79 11.84z" fill="url(#A)"/><path d="m81.28-154.68s1.42 9.03.9 15.38c-.54 6.69-4.7 10.85-4.88 12.48-.3 2.7-1.81 16.64-4.7 17.37-4.01 1-12.3-24.24-12.3-24.24z" fill="#44494e"/><path d="m54.77-171.66s1.32-.5 2.73-1.2c1.14-.57 2-1.75 2-1.75s6.39-1.14 12.77 4.66c6.37 5.8 10.17 12.93 8.65 24.15s-6.18 17.88-6.18 17.88.57 9.32-1.33 15.78c-1.9 6.47-9.7 19.87-9.98 23.39-.29 3.52 4.02 4.24 5.21 7.24 1.05 2.65-.86 4.79-7.13 4.89s-12.84.33-13.12-2.5c-.48-4.78 2.97-5.63 2.78-11.43s-4.28-11.89-4.85-21.01c-.57-9.13 1.24-11.89 1.24-11.89s-.57-12.84 1.14-21.39 7.89-15.31 7.61-19.59c-.31-4.28-1.54-7.23-1.54-7.23z" fill="#5d6265"/><path d="m52.68-154.17c.05-.27-.29-.41-.46-.2-3.43 4.31-9.64 6.62-15.04 7.45-.29.04-.61.1-.79.33-1.07 1.3 5.11 2.5 10.39 1.56-.92 2.82 1.1 6.52 2.07 9.31 1.42 4.07-1.2 9.45.34 8.64 1.54-.8 1.69-4.27 2.18-6.53.53-2.45-.02-6.56-.07-9.07-.1-4.51.57-6.99 1.38-11.49z" fill="url(#B)"/><path d="m56.38-170.01c.36-.93.69-1.58 1.09-2.05.78-1.32 3.05-2.41 3.05-6 0-2.97-1.74-6.31-1.74-6.31s-.78 5.72-2.35 7.06c-1.59 1.35-3.47 1.81-5.51 1.88-.47.02-1.45-.16-1.86.11-.82.54-.3 1.94.17 2.61.52.74 1.27 1.28 1.94 1.89 2.04 1.86 3.07 3.97 3.61 5.5.46-1.54.98-3.1 1.6-4.69z" fill="url(#C)"/><path d="m75.53-161.53c.66 1.04 1.24 2.05 1.73 2.96-2.26-.94-4.51-1.89-6.77-2.83 4.3 5.87 5.9 13.64 4.27 20.73-1.47-2.79-3.28-5.4-5.37-7.76.26 4.08.19 7.65-1.03 11.56-1.13 3.6-2.75 7.05-4.82 10.2-.56-5.92-1.2-12.1-4.44-17.09-.65 3.42-1.48 6.8-2.51 10.13-2.98-7.45-4.25-15.57-3.74-23.57.26-4.14 1.14-14.48 6.52-15.5 6.65-1.27 12.56 5.47 16.16 11.17z" fill="#757b80"/><path d="m85.15 82.83-20.16 5.9s2 11.13 2.76 15.12 1.14 7.51.76 8.75-3.99 3.71-3.33 6.09c.67 2.38 6.28 2.95 12.17 2.19 5.9-.76 6.94-2.85 7.04-5.99s-2.09-8.84-1.81-10.36c.29-1.52 2.66-4.94 2.95-8.65s-.38-13.05-.38-13.05z" fill="url(#D)"/><path d="m41.31 61.38-18.68-24.81s-7.56 3-7.99 13.83 2.42 16.97 2.14 21.39c-.29 4.42-4.14 8.7-3.85 15.69s4.14 17.26 4.14 18.97-.57 11.32 1.64 13.36c2.01 1.86 6.63 2.33 10.63 2.04s8.42-1.14 8.42-4.28-5.27-2.74-5.71-4.42c-.21-.83.61-1.22 1.09-3.19.28-1.11-.05-2.76-.05-2.76s7.16-9.89 8.65-16.81c1.5-6.92-2.5-13.62-2.78-15.83-.28-2.19 2.35-13.18 2.35-13.18z" fill="url(#E)"/><path d="m29.62 53.71c-1.01-1.59-4.99-1.43-7.84-5.92s-2.42-9.34-.93-12.05c1.24-2.23 2.78-3 2.78-3l.07-2.14s-2.35-1.43-2.57-4.64.86-4.71 3.85-7.13 5.71-4.14 5.71-4.14-.29-2.92.5-4.78c.78-1.85 4.35-5.91 10.62-5.91s11.16 3.85 14.94 7.84 4.14 7.56 4.06 8.49c-.07.93-3.17 5.56-3.17 5.56l7.35 9.35 16.3 9.44 12.23 16.08 14.83 12.34 4.17 19.25s4.24 4.49 5.6 10.7c1.35 6.2 1.43 15.26-.71 16.76s-6.85 4.21-15.4 3.85c-6.72-.28-6.56-1.78-6.42-3 .18-1.5 4.49-5.63 4.99-6.28s.36-7.27-1.21-8.2-4.49-1.35-8.06-5.71c-3.57-4.35-4.49-10.48-4.49-10.48s-3.49 1.27-7.7 1.35c-5.85.12-14.12-2.64-14.12-2.64s-17.4-7.61-21.47-12.91c-2.95-3.84-4.28-6.13-4.28-6.13s-3.85-1.78-6.63-7.35c-2.79-5.54-2-7.03-3-8.6z" fill="url(#F)"/><path d="m44.24 26.82c.21-1.57 1-2.71-.93-3.85s-8.91-.78-11.84-.64c-2.92.14-8.49 0-7.99 2.35.12.59.23 1.68 1.07 2.46 2.52 2.34 7.42 2.67 7.42 2.67z" fill="#44494e"/><path d="m31.54 27.75c.93.18 1.93-4.28 7.99-4.06 6.06.21 7.38 3.85 7.38 3.85s-4.89 6.99-6.81 11.55c-1.93 4.56-3.78 10.27-4.85 10.63s-6.61-.12-10.2-3c-2.89-2.32-3.99-5.24-3.42-8.63.29-1.74 1.32-2.89 1.75-3.35.34-.37 2.14 1.93 3.21 1.5s.93-1.11.53-1.57c-.39-.46-2.21-1.68-2.21-1.68s.86-1.32 2.1-.75c1.06.48 2.14 2.1 2.14 2.1s1.96-2.06 2.82-2.21c1.39-.25 2.35 1.11 2.35 1.11s-2.96.96-3.32 1.82.29 1.96 2.35 1.21c2.07-.75 2.96-1.18 2.96-1.18s.11-3.24-3.03-4.1c-2.21-.61-4.06 1.6-4.06 1.6s-1.35-1.35-2.1-1.57c-.75-.21-1.39-.07-1.39-.07s-1.03-2.18-1.39-3.21-.78-2.57-.78-2.57 2.21-.89 4.28-.07c2.06.83 2.78 2.47 3.7 2.65z" fill="#aeaeaf"/><path d="m36.71 27.57c-.91.88-1.11 2.46-.18 3.17s2.28.43 3.14-.53 1-2.46.25-3.03-2.1-.68-3.21.39z"/><path d="m29.01 30.21c-.89.8-2.1.04-2.53-.53-.62-.83-.82-2.1-.46-2.6s1.64-.71 2.53.11c.89.81 1.21 2.34.46 3.02z"/><path d="m28.55 41.08c3.46.11 4.81-.04 5.74-.11.41-.03 1.28-.57 2.32.04s.79 2.21-.61 2.25c-1.39.04-1.68-.21-1.68-.21s-2.08.45-5.81.14c-3.46-.29-4.71-1.07-4.71-1.07s-1.6.66-1.93-.53c-.31-1.17.74-1.94 1.68-1.53.92.38 1.96.93 5 1.02z"/><path d="m85.39 70.25c1.27 2.62 4.42 5.56 6.63 4.99s2.57-1.57 4.28-2.42c1.71-.86 3.28-.71 3.28-.71s-2.71 3.28-3.35 6.63-2.07 12.48 4.14 16.54c6.2 4.06 12.19-2.85 12.19-2.85s1.71-11.13.5-18.83-5.28-14.77-8.91-16.9c-2.42-1.43-3.71-1-6.92-2.07-2.65-.88-6.7-2.78-9.56-4.85-2.85-2.07-5.92-4.42-5.92-4.42.11-.58 2.99 7.8 2.85 13.05-.09 3.43-.43 9.35.79 11.84z" fill="url(#G)"/><path d="m82.28 45.88s1.42 9.03.9 15.38c-.54 6.69-4.7 10.85-4.88 12.48-.3 2.7-1.81 16.64-4.7 17.37-4.01 1-12.3-24.24-12.3-24.24z" fill="#44494e"/><path d="m55.77 28.91s1.32-.5 2.73-1.2c1.14-.57 2-1.75 2-1.75s6.39-1.14 12.77 4.66c6.37 5.8 10.17 12.93 8.65 24.15s-6.18 17.88-6.18 17.88.57 9.32-1.33 15.78c-1.9 6.47-9.7 19.87-9.98 23.39s4.02 4.24 5.21 7.24c1.05 2.65-.86 4.79-7.13 4.89s-12.84.33-13.12-2.5c-.48-4.78 2.97-5.63 2.78-11.43s-4.28-11.89-4.85-21.01c-.57-9.13 1.24-11.89 1.24-11.89s-.57-12.84 1.14-21.39 7.89-15.31 7.61-19.59c-.31-4.28-1.54-7.23-1.54-7.23z" fill="#5d6265"/><path d="m54.11 46.5c.02-.06.04-.12.06-.17.27-.77.56-1.58.42-2.38-.03-.2-.11-.41-.29-.51-.19-.1-.43-.02-.62.09-1.17.68-1.54 2.23-2.3 3.27-1.09 1.48-2.33 2.94-3.91 3.91-2.68 1.66-6.22 2.46-9.3 2.93-.29.04-.61.1-.79.33-1.07 1.3 5.11 2.5 10.39 1.56-.92 2.82 1.1 6.52 2.07 9.31.65 1.86.47 3.89.18 5.8-.06.4-.81 3.11.09 3.08.35-.01.81-1.52.96-1.79.54-.98 1.14-1.87 1.54-2.92.76-1.97 1.09-4.11.91-6.22s-.84-4.15-1.05-6.26c-.34-3.39.52-6.8 1.64-10.03z" fill="url(#H)"/><path d="m57.38 30.56c.36-.93.69-1.58 1.09-2.05.78-1.32 3.05-2.41 3.05-6 0-2.97-1.74-6.31-1.74-6.31s-.78 5.72-2.35 7.06c-1.59 1.35-3.47 1.81-5.51 1.88-4.13.13-1.57 3.05.1 5.08 1.81 2.19 2.89 4.74 3.56 7.48 1.07-2.14.83-4.88 1.8-7.14z" fill="url(#I)"/><path d="m21.32 115.19c-.43-3.54 1.83-6.21.39-9.74-.8-1.95-2.1-3.65-3.05-5.53-2.56-5.11-1.76-10.58-.09-15.82 1.08-3.38 2.6-6.96 1.53-10.33.75 1.57 1.51 3.13 2.26 4.7 1.06-5.52.6-11.32-1.31-16.61-1.32-3.66-3.32-7.07-4.28-10.84-.63-2.5-.53-6.95.77-10.01-1.47 2.13-2.73 5.15-2.9 9.39-.43 10.84 2.42 16.97 2.14 21.39-.29 4.42-4.14 8.7-3.85 15.69s4.14 17.26 4.14 18.97-.57 11.32 1.64 13.36c1.51 1.4 4.49 2.01 7.57 2.1-2.08-1.12-4.68-4.36-4.96-6.72z" fill="#5d6265"/></svg>