<svg enable-background="new 0 0 128 128" viewBox="0 0 128 128" xmlns="http://www.w3.org/2000/svg" xmlns:xlink="http://www.w3.org/1999/xlink"><radialGradient id="a" cx="64.436" cy="14.875" gradientUnits="userSpaceOnUse" r="79.341"><stop offset=".0042869" stop-color="#f98b25"/><stop offset="1" stop-color="#e63d00"/></radialGradient><clipPath id="b"><path d="m64.01 14.53h-.03s-.02 0-.03 0c-73.79.39-58.67 84.68-58.67 84.68s8.29 14.6 8.28 14.31c-.05-2.3.74-11.2.74-11.2l-4.35-4.75s6.32-41.31 11.02-40.46c7.23 1.31 43.1 3.25 43.15 3.25 12.71 0 24.23-.58 31.46-1.89 4.71-.85 15.66 2.76 17.35 7.23 2.16 5.75 5.08 32.02 5.08 32.02l-4.35 4.6s.8 8.94.74 11.2c-.01.29 8.28-14.31 8.28-14.31s15.13-84.29-58.67-84.68z"/></clipPath><path d="m64.04 14.48h-.03s-.02 0-.03 0c-73.79.39-58.68 84.68-58.68 84.68s8.29 14.6 8.28 14.31c-.27-11.78 4.45-32.63 7.79-41.5 1.68-4.48 6.33-7.08 11.04-6.23 7.23 1.31 18.75 2.93 31.46 2.93h.14.14c12.71 0 24.23-1.62 31.46-2.93 4.71-.85 9.35 1.75 11.04 6.23 3.34 8.88 8.06 29.73 7.79 41.5-.01.29 8.28-14.31 8.28-14.31s15.12-84.29-58.68-84.68z" fill="url(#a)"/><g clip-path="url(#b)"><path d="m63.99 19.4c18.38.1 32.37 5.75 41.58 16.8 17.55 21.05 13.29 55.75 12.46 61.37-.04.06-.07.12-.11.19-1.65-10.45-4.48-21.49-6.73-27.46-2.15-5.71-7.7-9.55-13.81-9.55-.89 0-1.78.08-2.65.24-7.19 1.3-18.33 2.86-30.59 2.86h-.08-.06-.06-.07c-12.26 0-23.41-1.55-30.59-2.86-.88-.16-1.77-.24-2.65-.24-6.11 0-11.66 3.84-13.81 9.55-2.25 5.98-5.08 17.01-6.73 27.46-.04-.06-.07-.12-.11-.19-.86-5.63-5.12-40.32 12.43-61.37 9.21-11.05 23.2-16.7 41.58-16.8m.02-4.87h-.03s-.02 0-.03 0c-73.79.39-58.67 84.68-58.67 84.68s8.12 14.31 8.28 14.31c-.27-11.78 4.45-32.63 7.79-41.5 1.47-3.91 5.2-6.39 9.25-6.39.59 0 1.19.05 1.79.16 7.23 1.31 18.75 2.93 31.46 2.93h.14.14c12.71 0 24.23-1.62 31.46-2.93.6-.11 1.2-.16 1.79-.16 4.05 0 7.78 2.48 9.25 6.39 3.34 8.88 8.06 29.73 7.79 41.5.15 0 8.28-14.31 8.28-14.31s15.11-84.29-58.69-84.68z" fill="#c23b00"/></g><path d="m4 4h120v120h-120z" fill="none"/><path d="m128 0h-4c-.55 0-1 .45-1 1s.45 1 1 1h4zm-12 0h-4c-.55 0-1 .45-1 1s.45 1 1 1h4c.55 0 1-.45 1-1s-.45-1-1-1zm-12 0h-4c-.55 0-1 .45-1 1s.45 1 1 1h4c.55 0 1-.45 1-1s-.45-1-1-1zm-12 0h-4c-.55 0-1 .45-1 1s.45 1 1 1h4c.55 0 1-.45 1-1s-.45-1-1-1zm-12 0h-4c-.55 0-1 .45-1 1s.45 1 1 1h4c.55 0 1-.45 1-1s-.45-1-1-1zm-12 0h-4c-.55 0-1 .45-1 1s.45 1 1 1h4c.55 0 1-.45 1-1s-.45-1-1-1zm-12 0h-4c-.55 0-1 .45-1 1s.45 1 1 1h4c.55 0 1-.45 1-1s-.45-1-1-1zm-12 0h-4c-.55 0-1 .45-1 1s.45 1 1 1h4c.55 0 1-.45 1-1s-.45-1-1-1zm-12 0h-4c-.55 0-1 .45-1 1s.45 1 1 1h4c.55 0 1-.45 1-1s-.45-1-1-1zm-12 0h-4c-.55 0-1 .45-1 1s.45 1 1 1h4c.55 0 1-.45 1-1s-.45-1-1-1zm-12 0h-4c-.55 0-1 .45-1 1s.45 1 1 1h4c.55 0 1-.45 1-1s-.45-1-1-1zm-7 3c-.55 0-1 .45-1 1v4c0 .55.45 1 1 1s1-.45 1-1v-4c0-.55-.45-1-1-1zm0 12c-.55 0-1 .45-1 1v4c0 .55.45 1 1 1s1-.45 1-1v-4c0-.55-.45-1-1-1zm0 12c-.55 0-1 .45-1 1v4c0 .55.45 1 1 1s1-.45 1-1v-4c0-.55-.45-1-1-1zm0 12c-.55 0-1 .45-1 1v4c0 .55.45 1 1 1s1-.45 1-1v-4c0-.55-.45-1-1-1zm0 12c-.55 0-1 .45-1 1v4c0 .55.45 1 1 1s1-.45 1-1v-4c0-.55-.45-1-1-1zm0 12c-.55 0-1 .45-1 1v4c0 .55.45 1 1 1s1-.45 1-1v-4c0-.55-.45-1-1-1zm0 12c-.55 0-1 .45-1 1v4c0 .55.45 1 1 1s1-.45 1-1v-4c0-.55-.45-1-1-1zm0 12c-.55 0-1 .45-1 1v4c0 .55.45 1 1 1s1-.45 1-1v-4c0-.55-.45-1-1-1zm0 12c-.55 0-1 .45-1 1v4c0 .55.45 1 1 1s1-.45 1-1v-4c0-.55-.45-1-1-1zm0 12c-.55 0-1 .45-1 1v4c0 .55.45 1 1 1s1-.45 1-1v-4c0-.55-.45-1-1-1zm0 12c-.55 0-1 .45-1 1v4h2v-4c0-.55-.45-1-1-1zm11 3h-4c-.55 0-1 .45-1 1s.45 1 1 1h4c.55 0 1-.45 1-1s-.45-1-1-1zm12 0h-4c-.55 0-1 .45-1 1s.45 1 1 1h4c.55 0 1-.45 1-1s-.45-1-1-1zm12 0h-4c-.55 0-1 .45-1 1s.45 1 1 1h4c.55 0 1-.45 1-1s-.45-1-1-1zm12 0h-4c-.55 0-1 .45-1 1s.45 1 1 1h4c.55 0 1-.45 1-1s-.45-1-1-1zm12 0h-4c-.55 0-1 .45-1 1s.45 1 1 1h4c.55 0 1-.45 1-1s-.45-1-1-1zm12 0h-4c-.55 0-1 .45-1 1s.45 1 1 1h4c.55 0 1-.45 1-1s-.45-1-1-1zm12 0h-4c-.55 0-1 .45-1 1s.45 1 1 1h4c.55 0 1-.45 1-1s-.45-1-1-1zm12 0h-4c-.55 0-1 .45-1 1s.45 1 1 1h4c.55 0 1-.45 1-1s-.45-1-1-1zm12 0h-4c-.55 0-1 .45-1 1s.45 1 1 1h4c.55 0 1-.45 1-1s-.45-1-1-1zm12 0h-4c-.55 0-1 .45-1 1s.45 1 1 1h4c.55 0 1-.45 1-1s-.45-1-1-1zm7-3c-.55 0-1 .45-1 1v4h2v-4c0-.55-.45-1-1-1zm0-12c-.55 0-1 .45-1 1v4c0 .55.45 1 1 1s1-.45 1-1v-4c0-.55-.45-1-1-1zm0-12c-.55 0-1 .45-1 1v4c0 .55.45 1 1 1s1-.45 1-1v-4c0-.55-.45-1-1-1zm0-12c-.55 0-1 .45-1 1v4c0 .55.45 1 1 1s1-.45 1-1v-4c0-.55-.45-1-1-1zm0-12c-.55 0-1 .45-1 1v4c0 .55.45 1 1 1s1-.45 1-1v-4c0-.55-.45-1-1-1zm0-12c-.55 0-1 .45-1 1v4c0 .55.45 1 1 1s1-.45 1-1v-4c0-.55-.45-1-1-1zm0-12c-.55 0-1 .45-1 1v4c0 .55.45 1 1 1s1-.45 1-1v-4c0-.55-.45-1-1-1zm0-12c-.55 0-1 .45-1 1v4c0 .55.45 1 1 1s1-.45 1-1v-4c0-.55-.45-1-1-1zm0-12c-.55 0-1 .45-1 1v4c0 .55.45 1 1 1s1-.45 1-1v-4c0-.55-.45-1-1-1zm0-12c-.55 0-1 .45-1 1v4c0 .55.45 1 1 1s1-.45 1-1v-4c0-.55-.45-1-1-1zm0-12c-.55 0-1 .45-1 1v4c0 .55.45 1 1 1s1-.45 1-1v-4c0-.55-.45-1-1-1z"/></svg>