<svg enable-background="new 0 0 128 128" viewBox="0 0 128 128" xmlns="http://www.w3.org/2000/svg" xmlns:xlink="http://www.w3.org/1999/xlink"><linearGradient id="a" gradientUnits="userSpaceOnUse" x1="5.3767" x2="122.3772" y1="22.6472" y2="105.1497"><stop offset="0" stop-color="#fff" stop-opacity="0"/><stop offset=".1646" stop-color="#c8c8c8" stop-opacity=".1646"/><stop offset=".3934" stop-color="#828282" stop-opacity=".3934"/><stop offset=".5997" stop-color="#4a4a4a" stop-opacity=".5997"/><stop offset=".7759" stop-color="#222" stop-opacity=".7759"/><stop offset=".9151" stop-color="#090909" stop-opacity=".9151"/><stop offset="1"/></linearGradient><path d="m4 20.8v5.6 5.3 5.1 4.9 4.7 4.5 4.4 4.4s0 2.9 0 4.3v4.3 4.4 4.4 4.5 4.7s0 3.2 0 4.9 0 3.3 0 5.1v5.3 5.6c1.8-1.1 3.7-2.1 5.4-2.8s3.5-1.4 5.2-2 3.4-.9 5.1-1.3c1.7-.3 3.3-.5 4.9-.7 1.6-.1 3.2-.2 4.8-.2s3.1.1 4.6.2 3 .3 4.5.5 3 .4 4.4.7 2.9.6 4.3.9 2.8.7 4.2 1.1 2.8.8 4.2 1.2l4.2 1.2s2.8.8 4.2 1.2l4.2 1.2s2.8.8 4.2 1.2l4.2 1.2s2.8.7 4.2 1.1c1.4.3 2.9.6 4.3.9s2.9.5 4.4.7 3 .4 4.5.5 3.1.2 4.6.2 3.1-.1 4.8-.2 3.2-.4 4.9-.7 3.3-.7 5.1-1.3 3.5-1.2 5.2-2 3.6-1.7 5.4-2.8v-5.6-5.3-5.1s0-3.3 0-4.9 0-3.2 0-4.7 0-3.1 0-4.5v-4.4-4.4s0-2.9 0-4.3v-4.3s0-2.9 0-4.4 0-2.9 0-4.4v-4.5s0-3.1 0-4.7v-4.9s0-3.3 0-5.1v-5.3-5.6c-1.8 1.1-3.7 2.1-5.4 2.9-1.8.8-3.5 1.5-5.2 2s-3.4 1-5.1 1.3-3.3.5-4.9.7-3.2.2-4.8.2-3.1-.1-4.6-.2-3-.3-4.5-.5-2.9-.5-4.4-.7-2.9-.6-4.3-.9-2.8-.7-4.2-1c-1.4-.4-2.8-.8-4.2-1.1s-2.8-.8-4.2-1.2-2.8-.8-4.2-1.2-2.8-.8-4.2-1.2-2.8-.8-4.2-1.2-2.8-.8-4.2-1.1-2.8-.7-4.2-1-2.9-.6-4.3-.9c-1.5-.3-2.9-.5-4.4-.7s-3-.4-4.5-.5-3.1-.2-4.6-.2-3.1.1-4.8.2-3.2.4-4.9.7-3.3.7-5.1 1.3c-1.7.5-3.5 1.2-5.2 2-1.7.2-3.5 1.2-5.4 2.3z" fill="#f2f2f2"/><path d="m124 107.2c-6.9 4.2-14.6 6.5-22.6 6.9s-16-1-23.8-3c-15.8-4-31.4-10.8-48-10.9-9 0-17.8 2.3-25.6 7 0-9.7 0-19.3 0-29 0-9.4 0-18.7 0-28.1 0-7.9 0-15.9 0-23.8 0-1.5 0-2.9 0-4.4 0-.3-.1-.9 0-1.2.2-.4 1.3-.7 1.6-.9 1.1-.6 2.3-1.2 3.5-1.8 4.8-2.2 9.9-3.5 15.1-4 10.5-1 20.8 1.3 30.8 4.1 20 5.6 41.5 14.5 62.1 6.1 2.4-1 4.7-2.1 6.8-3.5v15.7 14.4 15.2 18.6 21.3c.1.6.1.9.1 1.3z" fill="url(#a)" opacity=".3"/><path d="m120 27v30.3 23.6 11.5 5.8 6.1c0 .2.1.8 0 1-.1.1-.7.3-.7.3-.5.2-.9.4-1.4.6-1.1.5-2.3.9-3.4 1.3-16.4 5.6-33.4.7-49.2-4.1-16.4-4.9-34-10.5-51-5.1-2.1.7-4.2 1.5-6.2 2.5 0-8.6 0-17.2 0-25.8 0-8.9 0-17.8 0-26.7 0-5.6 0-11.3 0-16.9 0-1.7 0-3.4 0-5 0-.8 0-1.5 0-2.3 0-.3 0-.7 0-1 0-.6.1-.7.7-1 2.1-1 4.2-1.8 6.4-2.4 16-4.8 32.5 0 48 4.7 16.3 4.9 33.8 10.4 50.7 5 2-.6 4.1-1.4 6.1-2.4m4-6.2c-9.1 5.5-19.5 7.6-30 6.8-10.7-.8-21-4.1-31.1-7.1-10.2-3.1-20.5-6.1-31.2-6.6-5.2-.2-10.5.3-15.6 1.7-2.5.7-5 1.6-7.3 2.7-1.1.5-2.1 1-3.2 1.6-.3.1-1.5.6-1.6.9v.3c-.1.4 0 1 0 1.5v2.1s0 1.3 0 2v5.5 13.4 28.6 30.3 2.7c9.1-5.5 19.6-7.6 30.2-6.8 10.7.8 21.1 4.1 31.3 7.2s20.5 6.1 31.2 6.5c5.2.2 10.5-.4 15.5-1.8 2.5-.7 4.9-1.6 7.3-2.7 1.1-.5 2.1-1.1 3.2-1.7.3-.2 1.2-.5 1.3-.8 0-.1 0-.3 0-.4.2-1.8 0-3.7 0-5.5s0-3.7 0-5.5c0-6.3 0-12.5 0-18.8 0-9.4 0-18.8 0-28.2 0-8.5 0-16.9 0-25.4 0-.8 0-1.7 0-2.5z" fill="#424242" opacity=".2"/><path d="m58 73.7c0-3.1.2-6.6 1.7-9.3 1.7-3 4.8-4.2 7.4-6.2 2.8-2.1 3.7-4.9 3-8.3-.7-3.2-3.1-5.4-6.2-6.3-1.5-.4-3.2-.5-4.6.4-1.4 1-1.8 2.8-1.9 4.5-2.9-.9-5.9-1.7-8.8-2.4-.7-.2-1.5-.4-2.2-.5-.6-.1-.6-.2-.5-.8 0-.4 0-.8.1-1.2.1-1.5.5-3 1-4.3 2.6-6.3 9.6-7 15.5-5.5 6.2 1.5 12.3 4.7 16.1 9.9 3.6 4.9 5.1 12.8 1.4 18.1-2 2.8-5 4.7-7.8 6.6-1.4.9-2.5 2.1-3.2 3.7-.6 1.5-.7 3.2-.8 4.8-3.3-1.1-6.7-2.2-10.2-3.2zm-1.1 12c0-2.5 1.5-4.5 4.1-4.6 2.8-.1 5.6 1.5 7.2 3.6 1.5 2 2.5 5.3 1 7.6-1.5 2.4-4.7 1.9-6.9 1-3.1-1.3-5.4-4.3-5.4-7.6z" fill="#0071bc"/></svg>